# xmcd
#
# Track frame offsets:
#	150
#	26841
#	48152
#	63659
#	91505
#	104862
#	123903
#	143090
#	158238
#	180013
#	196711
#	218457
#	233728
#	248770
#	262727
#
# Disc length: 3869 seconds
#
# Revision: 0
# Processed by: cddbd v1.5.2PL0 Copyright (c) Steve Scherf et al.
# Submitted via: EasyCDDAExtractor 10.0.6.1
#
DISCID=b90f1b0f
DTITLE=Sarah Morgann - Cantatrice
DYEAR=2006
DGENRE=pop
TTITLE0=What Are Doing The Rest Of Your Life
TTITLE1=Besame Mucho
TTITLE2=So In Love
TTITLE3=The Autumn Leaves
TTITLE4=If I Love Again
TTITLE5=Somewhere Out There
TTITLE6=When I Fall In Love
TTITLE7=Candle On The Water
TTITLE8=Unchained Melody
TTITLE9=All I Ask Of You (Duet With Dan Truhitte)
TTITLE10=Through The Eyes Of Love
TTITLE11=Long Ago And Far Away
TTITLE12=Love Me Tender (Duet With Dan Truhitte)
TTITLE13=True Love
TTITLE14=La Vie En Rose
EXTD=
EXTT0=
EXTT1=
EXTT2=
EXTT3=
EXTT4=
EXTT5=
EXTT6=
EXTT7=
EXTT8=
EXTT9=
EXTT10=
EXTT11=
EXTT12=
EXTT13=
EXTT14=
PLAYORDER=
